# xmcd CD database file
#
# Track frame offsets:
#	150
#	18900
#	40200
#	60655
#	83450
#	101675
#	122075
#	143300
#	165092
#	183017
#
# Disc length: 2745 seconds
#
# Revision: 1
# Processed by: cddbd v1.5.1PL2 Copyright (c) Steve Scherf et al.
# Submitted via: CDex 1.51
#
DISCID=660ab70a
DTITLE=Sumaq Petra - Hermano Extranjero
DYEAR=1998
DGENRE=Contemporary Christian
TTITLE0=Libertad sin ideologia
TTITLE1=Continente Americano
TTITLE2=Hermano Extranjero
TTITLE3=La Guerra
TTITLE4=Unidos
TTITLE5=Huahuat' amtasinani
TTITLE6=La Verdad es Jesucristo
TTITLE7=Mujer Virtuosa
TTITLE8=Senor de Senores
TTITLE9=Deseos de cambio
EXTD=YEAR: 1998
EXTT0=
EXTT1=
EXTT2=
EXTT3=
EXTT4=
EXTT5=
EXTT6=
EXTT7=
EXTT8=
EXTT9=
PLAYORDER=
